<?xml version="1.0" encoding="UTF-8" standalone="no"?>
<!DOCTYPE svg PUBLIC "-//W3C//DTD SVG 1.1//EN" "http://www.w3.org/Graphics/SVG/1.1/DTD/svg11.dtd">
<svg version="1.1" xmlns="http://www.w3.org/2000/svg" xmlns:xlink="http://www.w3.org/1999/xlink" preserveAspectRatio="xMidYMid meet" viewBox="0 0 640 640" width="640" height="640"><defs><path d="M6.14 304.46C2.1 308.5 0.12 313.8 0.16 319.08C0.16 319.24 0.08 319.36 0.08 319.52C0.08 349.52 0.08 589.52 0.08 619.52C0.08 630.56 9.04 639.52 20.08 639.52C20.24 639.52 20.36 639.44 20.52 639.44C25.8 639.48 31.1 637.5 35.14 633.46C54.13 614.47 149.11 519.49 320.06 348.54C491.38 519.86 586.56 615.04 605.6 634.08C613.62 642.1 626.62 642.1 634.64 634.08C639.4 629.32 640.98 622.86 640.1 616.68C640.1 587.26 640.1 351.86 640.1 322.44C640.98 316.26 639.4 309.8 634.64 305.04C604.7 275.1 365.14 35.54 335.2 5.6C331.04 1.44 325.56 -0.46 320.1 -0.3C314.66 -0.46 309.18 1.44 305.02 5.58C245.24 65.36 36.03 274.57 6.14 304.46ZM600.08 570.48C441.15 411.55 352.86 323.26 335.2 305.6C331.04 301.44 325.56 299.54 320.1 299.7C314.66 299.54 309.18 301.44 305.02 305.6C287.36 323.26 199.04 411.57 40.08 570.52L40.08 328.5L320.06 48.54L600.08 328.56L600.08 570.48Z" id="a2PIm3M80S"></path></defs><g><g><g><use xlink:href="#a2PIm3M80S" opacity="1" fill="#ff0000" fill-opacity="1"></use><g><use xlink:href="#a2PIm3M80S" opacity="1" fill-opacity="0" stroke="#000000" stroke-width="1" stroke-opacity="0"></use></g></g></g></g></svg>